<svg width="54" height="61" viewBox="0 0 54 61" fill="none" xmlns="http://www.w3.org/2000/svg">
<path d="M18.9404 29.5701H8.14918C7.01475 29.5701 6.44504 28.1591 7.24826 27.3343L10.799 23.6843C11.4514 23.0059 12.234 22.4663 13.0999 22.0977C13.9659 21.7291 14.8974 21.5391 15.8385 21.5391C16.7797 21.5391 17.7111 21.7291 18.5771 22.0977C19.443 22.4663 20.2257 23.0059 20.8781 23.6843L22.0108 24.8485L22.0258 24.8154L22.1086 24.8535C23.7315 20.5923 23.8458 18.6513 23.8392 13.7973L23.8359 13.1878C23.8177 9.25456 23.7945 4.49986 28.1749 3.87053C33.9233 3.04248 38.1215 13.1878 38.8088 22.1971C40.0843 21.7247 41.4699 21.6348 42.7957 21.9384C44.1216 22.242 45.33 22.9259 46.2729 23.9062L49.8253 27.5563C50.6301 28.3843 50.0604 29.792 48.926 29.792H43.0733C43.2306 30.3716 43.3151 30.9861 43.3151 31.6187V44.1257C43.3151 46.1445 41.1207 46.9791 39.7793 45.3959C39.2742 44.8014 37.4226 42.6368 35.018 39.8314C28.5707 49.0692 12.3507 54.1037 7.77159 46.4691C7.73519 46.4711 7.69874 46.4722 7.66229 46.4724H6.02108C5.45106 46.4567 4.90965 46.2192 4.51202 45.8105C4.11439 45.4018 3.89191 44.854 3.89191 44.2838C3.89191 43.7136 4.11439 43.1658 4.51202 42.7571C4.90965 42.3484 5.45106 42.1109 6.02108 42.0953H6.56263C6.59409 38.369 9.27865 35.1446 12.8492 33.7418C15.1697 32.8304 17.2526 31.4033 18.9404 29.5684V29.5701ZM35.5959 24.8336C35.5959 24.5521 35.5943 24.2672 35.586 23.9757C35.4919 21.0293 35.0222 18.107 34.1882 15.2795C33.3486 12.4475 32.2307 10.1356 31.0433 8.6716C29.8409 7.18938 29.041 7.09167 28.6469 7.14798C28.155 7.21919 28.0027 7.36327 27.9364 7.43283C27.8255 7.54876 27.6383 7.82036 27.4744 8.4265C27.1382 9.67852 27.1431 11.2667 27.1498 13.2541V13.7906C27.1547 16.2963 27.1299 18.2721 26.8301 20.2379C26.5999 21.7483 26.2207 23.1858 25.6427 24.8319H35.5959V24.8336ZM27.9381 31.5806C24.3244 38.5727 16.9382 41.981 10.0107 42.3371C9.84714 42.3446 9.68673 42.3843 9.53863 42.454C9.39054 42.5238 9.25768 42.622 9.1477 42.7433C9.03773 42.8645 8.95279 43.0063 8.89779 43.1604C8.84279 43.3146 8.8188 43.4781 8.8272 43.6416C8.8356 43.8051 8.87623 43.9653 8.94675 44.113C9.01727 44.2607 9.11629 44.393 9.23812 44.5023C9.35995 44.6116 9.50219 44.6958 9.65665 44.7499C9.81111 44.8041 9.97476 44.8272 10.1382 44.8179C17.4118 44.4453 25.4224 40.9559 29.6704 33.5961L27.9381 31.5806Z" fill="#FBFF2D"/>
</svg>
