<svg width="464" height="335" viewBox="0 0 464 335" fill="none" xmlns="http://www.w3.org/2000/svg">
<g id="Frame 2">
<path id="bottom" d="M231.815 334.941C359.843 334.941 463.63 318.725 463.63 298.722C463.63 278.719 359.843 262.504 231.815 262.504C103.787 262.504 0 278.719 0 298.722C0 318.725 103.787 334.941 231.815 334.941Z" fill="#EAE8EA"/>
<g id="water">
<path id="Vector" d="M315.434 48H255.817C239.717 48 226.665 60.8887 226.665 76.7884V279.829C226.672 282.646 227.298 285.426 228.499 287.974C229.701 290.521 231.447 292.773 233.616 294.57C235.785 296.367 238.322 297.665 241.048 298.372C243.775 299.079 246.623 299.178 249.392 298.661C250.104 298.537 250.8 298.337 251.469 298.065C262.939 293.109 272.122 286.504 285.628 286.504C299.135 286.504 308.318 293.109 319.788 298.065C320.456 298.337 321.151 298.537 321.862 298.661C324.63 299.178 327.478 299.078 330.204 298.371C332.93 297.664 335.467 296.366 337.636 294.569C339.804 292.772 341.551 290.52 342.752 287.973C343.953 285.426 344.579 282.646 344.586 279.829V76.7884C344.586 60.8887 331.534 48 315.434 48Z" fill="white"/>
<path id="Vector_2" d="M315.433 48H299.71C315.811 48 328.863 60.8887 328.863 76.7884V279.829C328.853 283.472 327.808 287.037 325.851 290.11C323.894 293.182 321.105 295.636 317.808 297.186C318.461 297.483 319.12 297.776 319.785 298.065C320.453 298.337 321.148 298.537 321.859 298.661C324.628 299.178 327.476 299.079 330.202 298.372C332.929 297.665 335.466 296.367 337.635 294.57C339.803 292.773 341.55 290.521 342.752 287.974C343.953 285.426 344.579 282.646 344.586 279.829V76.7884C344.586 60.8887 331.534 48 315.433 48Z" fill="#EAE8EA"/>
<path id="Vector_3" d="M269.903 286.504C257.181 286.504 248.294 292.363 237.72 297.186C241.353 298.912 245.443 299.429 249.392 298.661C250.104 298.537 250.8 298.337 251.469 298.065C260.573 294.131 268.239 289.161 277.767 287.278C275.177 286.763 272.543 286.503 269.903 286.504Z" fill="#D9CEDB"/>
<path id="Vector_4" d="M315.434 48H255.817C239.717 48 226.665 60.8887 226.665 76.7884V279.829C226.672 282.646 227.298 285.426 228.499 287.974C229.701 290.521 231.447 292.773 233.616 294.57C235.785 296.367 238.322 297.665 241.048 298.372C243.775 299.079 246.623 299.178 249.392 298.661C250.104 298.537 250.8 298.337 251.469 298.065C262.939 293.109 272.122 286.504 285.628 286.504C299.135 286.504 308.318 293.109 319.788 298.065C320.456 298.337 321.151 298.537 321.862 298.661C324.63 299.178 327.478 299.078 330.204 298.371C332.93 297.664 335.467 296.366 337.636 294.569C339.804 292.772 341.551 290.52 342.752 287.973C343.953 285.426 344.579 282.646 344.586 279.829V76.7884C344.586 60.8887 331.534 48 315.434 48Z" stroke="#363A5A" stroke-width="3.36916" stroke-linecap="round" stroke-linejoin="round"/>
<path id="Vector_5" d="M309.335 40.189H262.167V48.0503H309.335V40.189Z" fill="#EAE8EA"/>
<path id="Vector_6" d="M309.335 40.189H262.167V48.0503H309.335V40.189Z" stroke="#363A5A" stroke-width="3.36916" stroke-linecap="round" stroke-linejoin="round"/>
<path id="Vector_7" d="M309.967 40.376C293.836 41.2677 277.668 41.2677 261.536 40.376C260.677 40.3262 259.869 39.9493 259.279 39.3228C258.689 38.6963 258.361 37.8676 258.362 37.0068C258.362 30.5062 258.362 24.0054 258.362 17.5044C258.362 11.3046 263.318 5.14516 269.372 3.80311C280.152 1.3916 291.332 1.39908 302.109 3.82501C308.174 5.16369 313.142 11.318 313.142 17.5263C313.142 24.0187 313.142 30.5107 313.142 37.0023C313.145 37.864 312.817 38.6939 312.226 39.3214C311.636 39.9489 310.827 40.3263 309.967 40.376Z" fill="white"/>
<path id="Vector_8" d="M313.14 17.5336C313.14 11.3231 308.172 5.16877 302.108 3.83233C295.057 2.2547 287.816 1.70078 280.607 2.18762C284.44 2.4517 288.249 3.00146 292 3.83233C298.065 5.17102 303.033 11.3254 303.033 17.5336C303.033 24.026 303.033 30.518 303.033 37.0096C303.034 37.8703 302.706 38.6988 302.116 39.3253C301.526 39.9518 300.719 40.3287 299.86 40.3788C293.476 40.7314 287.089 40.9428 280.698 41.0128C290.457 41.1251 300.213 40.9137 309.967 40.3788C310.826 40.3287 311.634 39.9518 312.224 39.3253C312.814 38.6988 313.142 37.8703 313.14 37.0096C313.14 30.5191 313.14 24.0271 313.14 17.5336Z" fill="#EAE8EA"/>
<path id="Vector_9" d="M309.967 40.376C293.836 41.2677 277.668 41.2677 261.536 40.376C260.677 40.3262 259.869 39.9493 259.279 39.3228C258.689 38.6963 258.361 37.8676 258.362 37.0068C258.362 30.5062 258.362 24.0054 258.362 17.5044C258.362 11.3046 263.318 5.14516 269.372 3.80311C280.152 1.3916 291.332 1.39908 302.109 3.82501C308.174 5.16369 313.142 11.318 313.142 17.5263C313.142 24.0187 313.142 30.5107 313.142 37.0023C313.145 37.864 312.817 38.6939 312.226 39.3214C311.636 39.9489 310.827 40.3263 309.967 40.376Z" stroke="#363A5A" stroke-width="3.36916" stroke-linecap="round" stroke-linejoin="round"/>
<path id="Vector_10" d="M226.665 101.907V279.829C226.672 282.646 227.298 285.426 228.499 287.974C229.701 290.521 231.447 292.773 233.616 294.57C235.785 296.367 238.322 297.665 241.048 298.372C243.775 299.079 246.623 299.178 249.392 298.661C250.104 298.537 250.8 298.337 251.469 298.065C262.939 293.109 272.122 286.504 285.628 286.504C299.135 286.504 308.318 293.109 319.788 298.065C320.456 298.337 321.151 298.537 321.862 298.661C324.63 299.178 327.478 299.078 330.204 298.371C332.93 297.664 335.467 296.366 337.636 294.569C339.804 292.772 341.551 290.52 342.752 287.973C343.953 285.426 344.579 282.646 344.586 279.829V101.907H226.665Z" fill="#73E1FF"/>
<path id="Vector_11" d="M328.301 101.907V271.968C328.295 274.784 327.668 277.565 326.467 280.112C325.266 282.66 323.519 284.912 321.35 286.709C319.182 288.506 316.644 289.804 313.918 290.511C311.192 291.218 308.343 291.317 305.575 290.8C304.864 290.676 304.169 290.476 303.501 290.204C292.031 285.245 282.848 278.642 269.341 278.642C255.834 278.642 246.652 285.245 235.182 290.204C234.514 290.476 233.818 290.675 233.107 290.8C232.205 290.971 231.291 291.078 230.373 291.118C232.501 294.05 235.419 296.316 238.787 297.652C242.154 298.988 245.833 299.338 249.392 298.661C250.104 298.537 250.8 298.337 251.469 298.065C262.939 293.109 272.122 286.504 285.628 286.504C299.135 286.504 308.318 293.109 319.788 298.065C320.456 298.337 321.151 298.537 321.862 298.661C324.63 299.178 327.478 299.078 330.204 298.371C332.93 297.664 335.467 296.366 337.636 294.569C339.804 292.772 341.551 290.52 342.752 287.973C343.953 285.426 344.579 282.646 344.586 279.829V101.907H328.301Z" fill="#48D8F9"/>
<path id="Vector_12" d="M226.665 101.907V279.829C226.672 282.646 227.298 285.426 228.499 287.974C229.701 290.521 231.447 292.773 233.616 294.57C235.785 296.367 238.322 297.665 241.048 298.372C243.775 299.079 246.623 299.178 249.392 298.661C250.104 298.537 250.8 298.337 251.469 298.065C262.939 293.109 272.122 286.504 285.628 286.504C299.135 286.504 308.318 293.109 319.788 298.065C320.456 298.337 321.151 298.537 321.862 298.661C324.63 299.178 327.478 299.078 330.204 298.371C332.93 297.664 335.467 296.366 337.636 294.569C339.804 292.772 341.551 290.52 342.752 287.973C343.953 285.426 344.579 282.646 344.586 279.829V101.907H226.665Z" stroke="#363A5A" stroke-width="3.36916" stroke-linecap="round" stroke-linejoin="round"/>
<path id="Vector_13" d="M269.903 26.1508V40.1889" stroke="#363A5A" stroke-width="3.36916" stroke-linecap="round" stroke-linejoin="round"/>
<path id="Vector_14" d="M280.572 26.1508V40.1889" stroke="#363A5A" stroke-width="3.36916" stroke-linecap="round" stroke-linejoin="round"/>
<path id="Vector_15" d="M291.241 26.1508V40.1889" stroke="#363A5A" stroke-width="3.36916" stroke-linecap="round" stroke-linejoin="round"/>
<path id="Vector_16" d="M301.91 26.1508V40.1889" stroke="#363A5A" stroke-width="3.36916" stroke-linecap="round" stroke-linejoin="round"/>
<path id="Vector_17" d="M258.111 158.059C261.832 158.059 264.849 155.043 264.849 151.321C264.849 147.6 261.832 144.583 258.111 144.583C254.389 144.583 251.372 147.6 251.372 151.321C251.372 155.043 254.389 158.059 258.111 158.059Z" fill="#ABEFFF"/>
<path id="Vector_18" d="M298.541 185.013C301.022 185.013 303.033 183.002 303.033 180.521C303.033 178.04 301.022 176.028 298.541 176.028C296.06 176.028 294.048 178.04 294.048 180.521C294.048 183.002 296.06 185.013 298.541 185.013Z" fill="#ABEFFF"/>
<path id="Vector_19" d="M271.587 218.704C273.448 218.704 274.956 217.196 274.956 215.335C274.956 213.474 273.448 211.966 271.587 211.966C269.727 211.966 268.218 213.474 268.218 215.335C268.218 217.196 269.727 218.704 271.587 218.704Z" fill="#ABEFFF"/>
<path id="Vector_20" d="M286.187 142.387C288.048 142.387 289.556 140.879 289.556 139.018C289.556 137.157 288.048 135.649 286.187 135.649C284.326 135.649 282.818 137.157 282.818 139.018C282.818 140.879 284.326 142.387 286.187 142.387Z" fill="#ABEFFF"/>
<path id="Vector_21" d="M327.74 117.068V199.051" stroke="#363A5A" stroke-width="3.36916" stroke-linecap="round" stroke-linejoin="round"/>
</g>
<g id="orange2">
<path id="Vector_22" d="M62.1375 132.738C57.3905 132.991 52.6891 133.796 48.128 135.135C48.087 136.744 48.0892 138.363 48.1751 139.997C48.6606 149.224 51.229 158.22 55.6875 166.312C60.146 174.405 66.379 181.382 73.9189 186.722C81.4588 192.062 90.1099 195.625 99.2233 197.144C108.337 198.663 117.676 198.1 126.54 195.495C126.581 193.886 126.58 192.267 126.493 190.633C125.636 174.421 118.375 159.214 106.306 148.357C94.2367 137.499 78.349 131.881 62.1375 132.738Z" fill="#76C526"/>
<path id="Vector_23" d="M62.1375 132.738C57.3905 132.991 52.6891 133.796 48.128 135.135C48.087 136.744 48.0892 138.363 48.1751 139.997C48.6606 149.224 51.229 158.22 55.6875 166.312C60.146 174.405 66.379 181.382 73.9189 186.722C81.4588 192.062 90.1099 195.625 99.2233 197.144C108.337 198.663 117.676 198.1 126.54 195.495C126.581 193.886 126.58 192.267 126.493 190.633C125.636 174.421 118.375 159.214 106.306 148.357C94.2367 137.499 78.349 131.881 62.1375 132.738Z" stroke="#363A5A" stroke-width="3.36916" stroke-linecap="round" stroke-linejoin="round"/>
<path id="Vector_24" d="M171.28 120.331C170.362 116.279 168.976 112.348 167.15 108.616C165.758 108.818 164.364 109.059 162.969 109.374C155.092 111.152 147.72 114.691 141.407 119.725C135.093 124.758 130.001 131.156 126.512 138.439C123.024 145.721 121.23 153.699 121.265 161.774C121.3 169.849 123.162 177.811 126.713 185.063C128.105 184.862 129.499 184.621 130.894 184.306C137.747 182.757 144.227 179.874 149.965 175.82C155.703 171.767 160.587 166.624 164.337 160.683C168.087 154.742 170.631 148.121 171.822 141.198C173.013 134.274 172.829 127.184 171.28 120.331Z" fill="#76C526"/>
<path id="Vector_25" d="M171.28 120.331C170.796 118.195 170.181 116.091 169.437 114.031C169.989 126.565 166.12 138.894 158.506 148.865C150.892 158.836 140.017 165.815 127.78 168.583C126.385 168.898 124.991 169.139 123.599 169.34C122.739 167.578 121.976 165.771 121.312 163.926C121.647 171.267 123.485 178.461 126.713 185.063C128.105 184.861 129.499 184.621 130.894 184.306C137.747 182.757 144.227 179.873 149.965 175.82C155.703 171.767 160.587 166.623 164.337 160.683C168.087 154.742 170.631 148.121 171.822 141.197C173.013 134.274 172.829 127.183 171.28 120.331Z" fill="#5FA412"/>
<path id="Vector_26" d="M171.28 120.331C170.362 116.279 168.976 112.348 167.15 108.616C165.758 108.818 164.364 109.059 162.969 109.374C155.092 111.152 147.72 114.691 141.407 119.725C135.093 124.758 130.001 131.156 126.512 138.439C123.024 145.721 121.23 153.699 121.265 161.774C121.3 169.849 123.162 177.811 126.713 185.063C128.105 184.862 129.499 184.621 130.894 184.306C137.747 182.757 144.227 179.874 149.965 175.82C155.703 171.767 160.587 166.624 164.337 160.683C168.087 154.742 170.631 148.121 171.822 141.198C173.013 134.274 172.829 127.184 171.28 120.331Z" stroke="#363A5A" stroke-width="3.36916" stroke-linecap="round" stroke-linejoin="round"/>
<path id="Vector_27" d="M151.27 137.895C151.27 137.895 138.66 154.179 126.713 185.063" stroke="#363A5A" stroke-width="3.36916" stroke-linecap="round" stroke-linejoin="round"/>
<path id="Vector_28" d="M74.3412 156.425C74.3412 156.425 110.227 190.765 126.537 195.495" stroke="#363A5A" stroke-width="3.36916" stroke-linecap="round" stroke-linejoin="round"/>
<path id="Vector_29" d="M188.067 237.566C188.058 245.936 186.387 254.221 183.149 261.939C179.911 269.658 175.172 276.656 169.207 282.527C163.241 288.398 156.169 293.025 148.4 296.139C140.63 299.253 132.32 300.793 123.951 300.668C115.582 300.543 107.321 298.756 99.6487 295.411C91.9762 292.066 85.0449 287.229 79.2575 281.182C73.4702 275.136 68.9422 267.999 65.9366 260.187C62.931 252.376 61.5077 244.045 61.7495 235.678C62.6732 202.971 87.5365 176.1 120.808 178.953C123.494 179.19 126.193 179.25 128.887 179.133C162.326 177.59 188.067 204.001 188.067 237.566Z" fill="#FF7D00"/>
<path id="Vector_30" d="M172.272 196.485C174.997 203.965 176.38 211.867 176.358 219.828C176.333 231.132 173.526 242.256 168.183 252.218C162.84 262.18 155.126 270.673 145.723 276.946C136.319 283.22 125.516 287.082 114.266 288.19C103.017 289.299 91.6675 287.62 81.2205 283.303C90.1801 291.831 101.444 297.544 113.617 299.736C125.791 301.927 138.34 300.501 149.711 295.634C161.082 290.766 170.777 282.671 177.594 272.35C184.411 262.029 188.052 249.935 188.067 237.566C188.067 221.457 182.136 206.999 172.272 196.485Z" fill="#FF6C22"/>
<path id="Vector_31" d="M159.282 186.748C136.821 192.924 121.94 215.452 118.29 240.093C116.044 255.254 125.59 291.753 152.858 294.224C163.429 289.006 172.328 280.934 178.55 270.921C184.772 260.908 188.069 249.354 188.066 237.566C188.067 213.996 178.42 196.06 159.282 186.748Z" fill="#FF6C22"/>
<path id="Vector_32" d="M188.067 237.566C188.058 245.936 186.387 254.221 183.149 261.939C179.911 269.658 175.172 276.656 169.207 282.527C163.241 288.398 156.169 293.025 148.4 296.139C140.63 299.253 132.32 300.793 123.951 300.668C115.582 300.543 107.321 298.756 99.6487 295.411C91.9762 292.066 85.0449 287.229 79.2575 281.182C73.4702 275.136 68.9422 267.999 65.9366 260.187C62.931 252.376 61.5077 244.045 61.7495 235.678C62.6732 202.971 87.5365 176.1 120.808 178.953C123.494 179.19 126.193 179.25 128.887 179.133C162.326 177.59 188.067 204.001 188.067 237.566Z" stroke="#363A5A" stroke-width="3.36916" stroke-linecap="round" stroke-linejoin="round"/>
<path id="Vector_33" d="M81.2294 215.947C80.7483 215.947 80.2753 215.823 79.8558 215.587C79.4364 215.351 79.0846 215.011 78.8341 214.601C78.5837 214.19 78.4431 213.721 78.4257 213.241C78.4084 212.76 78.5149 212.282 78.7351 211.855C89.4086 191.1 110.358 188.547 111.244 188.448C111.984 188.365 112.727 188.58 113.309 189.044C113.891 189.509 114.265 190.185 114.348 190.925C114.431 191.665 114.217 192.408 113.752 192.99C113.288 193.572 112.611 193.946 111.871 194.029C111.104 194.118 92.9895 196.415 83.7282 214.423C83.4921 214.882 83.134 215.268 82.6931 215.536C82.2523 215.805 81.7458 215.947 81.2294 215.947Z" fill="#FF9636"/>
<path id="Vector_34" d="M82.914 235.6C84.1545 235.6 85.1601 234.595 85.1601 233.354C85.1601 232.114 84.1545 231.108 82.914 231.108C81.6735 231.108 80.6679 232.114 80.6679 233.354C80.6679 234.595 81.6735 235.6 82.914 235.6Z" fill="#FF9636"/>
<path id="Vector_35" d="M99.7598 277.154C101 277.154 102.006 276.148 102.006 274.907C102.006 273.667 101 272.661 99.7598 272.661C98.5194 272.661 97.5137 273.667 97.5137 274.907C97.5137 276.148 98.5194 277.154 99.7598 277.154Z" fill="#FF9636"/>
<path id="Vector_36" d="M84.0371 261.992C85.8978 261.992 87.4062 260.484 87.4062 258.623C87.4062 256.762 85.8978 255.254 84.0371 255.254C82.1763 255.254 80.6679 256.762 80.6679 258.623C80.6679 260.484 82.1763 261.992 84.0371 261.992Z" fill="#FF9636"/>
<path id="Vector_37" d="M109.025 246.831C110.11 246.831 110.99 245.951 110.99 244.866C110.99 243.78 110.11 242.9 109.025 242.9C107.94 242.9 107.06 243.78 107.06 244.866C107.06 245.951 107.94 246.831 109.025 246.831Z" fill="#FF9636"/>
</g>
<g id="orange1">
<path id="Vector_38" d="M188.464 300.687C221.884 300.687 248.976 273.595 248.976 240.175C248.976 206.755 221.884 179.662 188.464 179.662C155.044 179.662 127.951 206.755 127.951 240.175C127.951 273.595 155.044 300.687 188.464 300.687Z" fill="#FF7D00"/>
<path id="Vector_39" d="M220.881 189.071C230.829 199.872 236.511 213.921 236.866 228.601C237.222 243.281 232.229 257.589 222.816 268.859C213.403 280.129 200.213 287.593 185.705 289.858C171.197 292.123 156.36 289.036 143.959 281.171C149.795 287.504 156.914 292.519 164.843 295.88C172.771 299.241 181.325 300.871 189.934 300.661C198.543 300.452 207.008 298.407 214.763 294.664C222.519 290.921 229.386 285.566 234.906 278.957C240.426 272.348 244.472 264.636 246.773 256.338C249.075 248.04 249.578 239.346 248.251 230.838C246.923 222.329 243.795 214.202 239.075 206.999C234.355 199.797 228.153 193.684 220.881 189.071Z" fill="#FF5B00"/>
<path id="Vector_40" d="M188.464 294.214C218.309 294.214 242.503 270.02 242.503 240.175C242.503 210.33 218.309 186.136 188.464 186.136C158.619 186.136 134.425 210.33 134.425 240.175C134.425 270.02 158.619 294.214 188.464 294.214Z" fill="white"/>
<path id="Vector_41" d="M242.469 238.358C242.464 238.202 242.458 238.047 242.451 237.891C242.429 237.342 242.4 236.795 242.36 236.25C242.356 236.194 242.354 236.138 242.35 236.081C242.305 235.483 242.247 234.888 242.181 234.295C242.166 234.156 242.15 234.017 242.133 233.878C242.072 233.349 242.003 232.823 241.927 232.3C241.917 232.227 241.908 232.155 241.897 232.083C241.808 231.488 241.709 230.896 241.599 230.307C241.579 230.198 241.557 230.089 241.536 229.98C241.435 229.451 241.326 228.924 241.21 228.399C241.194 228.329 241.18 228.258 241.164 228.189C241.029 227.592 240.884 227 240.729 226.412C240.712 226.347 240.694 226.282 240.676 226.217C240.529 225.668 240.375 225.123 240.212 224.582C240.195 224.526 240.178 224.466 240.161 224.408C239.978 223.809 239.786 223.215 239.584 222.625L239.576 222.603C239.376 222.022 239.166 221.445 238.947 220.873L238.9 220.75C238.448 219.578 237.956 218.425 237.426 217.293C237.415 217.269 237.404 217.246 237.393 217.223C236.856 216.079 236.28 214.957 235.665 213.858L235.649 213.829C235.029 212.721 234.372 211.638 233.677 210.579C237.014 220.42 237.763 230.953 235.851 241.166C233.939 251.38 229.431 260.929 222.761 268.897C216.091 276.864 207.483 282.981 197.765 286.659C188.047 290.337 177.546 291.452 167.272 289.898C169.727 290.946 172.257 291.81 174.841 292.481L174.854 292.485C175.277 292.594 175.703 292.699 176.13 292.799L176.167 292.808C176.579 292.904 176.993 292.995 177.41 293.081L177.493 293.099C177.893 293.182 178.294 293.258 178.698 293.332L178.83 293.358C179.223 293.429 179.62 293.494 180.016 293.556L180.177 293.582C180.549 293.639 180.922 293.691 181.296 293.741C181.377 293.751 181.457 293.764 181.538 293.774C181.898 293.82 182.259 293.86 182.621 293.899C182.716 293.909 182.81 293.922 182.902 293.932C183.247 293.967 183.592 293.996 183.938 294.024C184.051 294.034 184.166 294.046 184.28 294.055C184.607 294.08 184.936 294.098 185.264 294.118C185.398 294.125 185.532 294.137 185.666 294.143C186.003 294.161 186.346 294.171 186.686 294.182C186.811 294.187 186.934 294.193 187.059 294.197C187.525 294.208 187.993 294.214 188.463 294.215C198.866 294.223 209.049 291.226 217.788 285.585C226.528 279.943 233.452 271.897 237.727 262.414C238.088 261.616 238.429 260.808 238.752 259.99C239.236 258.762 239.676 257.514 240.071 256.244C240.735 254.112 241.264 251.939 241.657 249.741C241.815 248.853 241.952 247.959 242.067 247.058C242.356 244.775 242.501 242.476 242.501 240.175C242.503 239.566 242.489 238.961 242.469 238.358Z" fill="#EAE8EA"/>
<path id="Vector_42" d="M188.464 300.687C221.884 300.687 248.976 273.595 248.976 240.175C248.976 206.755 221.884 179.662 188.464 179.662C155.044 179.662 127.951 206.755 127.951 240.175C127.951 273.595 155.044 300.687 188.464 300.687Z" stroke="#363A5A" stroke-width="3.36916" stroke-linecap="round" stroke-linejoin="round"/>
<path id="Vector_43" d="M201.766 232.72C201.257 231.815 200.657 230.965 199.973 230.183C198.957 229.043 198.322 227.614 198.159 226.095C197.996 224.577 198.312 223.045 199.063 221.715L208.364 205.535C208.892 204.616 209.615 203.824 210.483 203.215C211.35 202.605 212.341 202.194 213.384 202.009C214.428 201.825 215.5 201.872 216.523 202.146C217.547 202.421 218.498 202.917 219.309 203.599C225.622 208.905 230.451 215.757 233.323 223.487C233.692 224.481 233.837 225.544 233.75 226.601C233.663 227.658 233.344 228.682 232.818 229.602C232.291 230.523 231.569 231.316 230.702 231.927C229.835 232.537 228.844 232.95 227.8 233.136L209.415 236.417C207.914 236.673 206.37 236.455 204.999 235.792C203.628 235.13 202.498 234.056 201.766 232.72Z" fill="#FFCE43"/>
<path id="Vector_44" d="M175.161 247.68C175.671 248.585 176.271 249.435 176.954 250.217C177.971 251.357 178.606 252.786 178.769 254.305C178.933 255.823 178.616 257.355 177.865 258.685L168.563 274.865C168.035 275.784 167.312 276.576 166.445 277.185C165.578 277.794 164.588 278.206 163.544 278.391C162.501 278.575 161.429 278.529 160.406 278.254C159.382 277.98 158.431 277.484 157.62 276.802C151.307 271.497 146.479 264.644 143.607 256.914C143.238 255.92 143.093 254.857 143.18 253.8C143.267 252.743 143.586 251.719 144.112 250.798C144.639 249.878 145.361 249.085 146.228 248.474C147.095 247.864 148.085 247.451 149.129 247.265L167.515 243.984C169.016 243.728 170.559 243.946 171.929 244.609C173.3 245.271 174.43 246.345 175.161 247.68Z" fill="#FFCE43"/>
<path id="Vector_45" d="M188.65 224.978C187.611 224.966 186.575 225.062 185.556 225.264C184.061 225.576 182.506 225.412 181.109 224.795C179.711 224.178 178.542 223.139 177.766 221.824L168.392 205.685C167.859 204.769 167.534 203.747 167.439 202.692C167.345 201.636 167.483 200.573 167.844 199.576C168.205 198.58 168.78 197.675 169.529 196.925C170.278 196.175 171.182 195.599 172.178 195.237C179.928 192.417 188.276 191.656 196.407 193.028C197.452 193.205 198.446 193.61 199.318 194.213C200.19 194.816 200.918 195.604 201.453 196.519C201.987 197.435 202.314 198.457 202.41 199.513C202.506 200.569 202.369 201.633 202.009 202.63L195.669 220.198C195.141 221.626 194.182 222.853 192.923 223.71C191.665 224.567 190.171 225.01 188.65 224.978Z" fill="#FFCE43"/>
<path id="Vector_46" d="M188.28 255.423C189.318 255.433 190.354 255.337 191.373 255.136C192.868 254.824 194.423 254.988 195.821 255.605C197.218 256.222 198.387 257.261 199.164 258.576L208.538 274.715C209.07 275.631 209.395 276.653 209.49 277.709C209.585 278.764 209.447 279.827 209.085 280.824C208.724 281.82 208.149 282.725 207.4 283.475C206.651 284.224 205.747 284.801 204.751 285.163C197.002 287.983 188.653 288.745 180.522 287.372C179.477 287.195 178.483 286.79 177.612 286.187C176.74 285.584 176.011 284.796 175.477 283.881C174.943 282.965 174.616 281.943 174.52 280.887C174.424 279.831 174.561 278.767 174.921 277.77L181.259 260.201C181.787 258.773 182.747 257.546 184.005 256.689C185.264 255.833 186.758 255.39 188.28 255.423Z" fill="#FFCE43"/>
<path id="Vector_47" d="M175.361 232.425C174.832 233.318 174.395 234.263 174.059 235.245C173.579 236.695 172.658 237.959 171.424 238.859C170.19 239.759 168.705 240.25 167.178 240.263L148.514 240.287C147.455 240.289 146.408 240.058 145.447 239.611C144.486 239.164 143.635 238.512 142.954 237.7C142.272 236.888 141.778 235.937 141.504 234.913C141.231 233.889 141.185 232.818 141.371 231.774C142.814 223.655 146.338 216.049 151.601 209.7C152.278 208.884 153.126 208.227 154.085 207.775C155.044 207.322 156.091 207.086 157.152 207.083C158.212 207.08 159.26 207.309 160.222 207.755C161.184 208.202 162.036 208.854 162.719 209.665L174.744 223.954C175.716 225.126 176.297 226.572 176.408 228.091C176.518 229.609 176.152 231.124 175.361 232.425Z" fill="#FFCE43"/>
<path id="Vector_48" d="M201.565 247.976C202.094 247.082 202.531 246.137 202.868 245.155C203.347 243.705 204.268 242.441 205.502 241.541C206.736 240.641 208.221 240.15 209.748 240.137L228.412 240.113C229.472 240.111 230.519 240.342 231.48 240.789C232.441 241.236 233.292 241.888 233.973 242.7C234.654 243.512 235.149 244.463 235.423 245.487C235.696 246.511 235.741 247.583 235.556 248.626C234.113 256.745 230.589 264.352 225.327 270.702C224.65 271.518 223.802 272.175 222.843 272.627C221.884 273.079 220.837 273.316 219.776 273.319C218.716 273.322 217.668 273.093 216.706 272.646C215.744 272.2 214.892 271.548 214.209 270.737L202.182 256.446C201.211 255.274 200.63 253.828 200.519 252.309C200.408 250.791 200.774 249.276 201.565 247.976Z" fill="#FFCE43"/>
<path id="Vector_49" d="M199.973 230.182C200.656 230.965 201.257 231.815 201.766 232.72C202.498 234.055 203.628 235.129 204.999 235.791C206.369 236.453 207.913 236.672 209.413 236.415L227.799 233.134C228.843 232.949 229.833 232.536 230.7 231.925C231.567 231.315 232.289 230.522 232.816 229.601C233.342 228.681 233.66 227.657 233.748 226.6C233.835 225.543 233.69 224.48 233.321 223.486C230.449 215.757 225.621 208.904 219.309 203.599C218.498 202.917 217.547 202.422 216.523 202.147C215.5 201.873 214.428 201.826 213.385 202.011C212.341 202.195 211.351 202.607 210.484 203.216C209.617 203.825 208.894 204.617 208.366 205.536L199.065 221.716C198.313 223.046 197.997 224.577 198.16 226.095C198.323 227.614 198.957 229.043 199.973 230.182Z" fill="#FFCE43"/>
<path id="Vector_50" d="M165.574 261.992C168.606 262.475 171.46 263.738 173.856 265.659L177.865 258.684C178.616 257.355 178.932 255.823 178.769 254.305C178.606 252.786 177.971 251.357 176.955 250.217C176.272 249.435 175.671 248.585 175.161 247.68C174.43 246.345 173.3 245.272 171.929 244.609C170.559 243.947 169.016 243.728 167.515 243.984L155.8 246.075C156.664 258.463 159.37 261.106 165.574 261.992Z" fill="#FFCE43"/>
<path id="Vector_51" d="M177.764 221.824C178.541 223.139 179.71 224.178 181.107 224.795C182.504 225.412 184.059 225.576 185.554 225.264C186.573 225.062 187.61 224.966 188.648 224.978C190.17 225.01 191.664 224.567 192.922 223.71C194.18 222.853 195.14 221.626 195.667 220.198L202.006 202.63C202.366 201.633 202.503 200.569 202.406 199.513C202.31 198.458 201.984 197.436 201.449 196.52C200.915 195.604 200.186 194.817 199.314 194.214C198.443 193.61 197.449 193.206 196.404 193.028C188.272 191.656 179.924 192.417 172.175 195.237C171.179 195.6 170.275 196.176 169.526 196.926C168.777 197.676 168.202 198.581 167.841 199.577C167.479 200.573 167.341 201.637 167.436 202.692C167.531 203.748 167.856 204.77 168.389 205.686L177.764 221.824Z" fill="#FFCE43"/>
<path id="Vector_52" d="M199.164 258.576C198.387 257.261 197.218 256.222 195.821 255.605C194.423 254.988 192.868 254.824 191.373 255.136C190.354 255.337 189.318 255.433 188.28 255.423C186.758 255.39 185.264 255.833 184.006 256.69C182.747 257.547 181.788 258.774 181.26 260.202L177.962 269.345C178.838 270.295 179.763 271.197 180.735 272.049C183.543 274.296 194.212 275.419 194.212 277.103C194.212 278.294 196.177 283.975 197.327 287.202C199.853 286.723 202.335 286.041 204.751 285.163C205.747 284.801 206.651 284.224 207.4 283.475C208.149 282.725 208.724 281.82 209.085 280.824C209.446 279.827 209.585 278.764 209.49 277.709C209.395 276.653 209.07 275.631 208.538 274.715L199.164 258.576Z" fill="#FFCE43"/>
<path id="Vector_53" d="M155.466 233.916C155.466 236.226 155.49 238.336 155.539 240.278L167.178 240.263C168.705 240.25 170.19 239.758 171.424 238.859C172.658 237.959 173.579 236.695 174.059 235.245C174.395 234.263 174.831 233.318 175.361 232.425C176.152 231.124 176.518 229.609 176.407 228.09C176.296 226.572 175.715 225.126 174.743 223.954L162.718 209.665C162.035 208.854 161.183 208.202 160.221 207.755C159.259 207.309 158.211 207.08 157.15 207.083C156.09 207.086 155.043 207.322 154.084 207.775C153.125 208.227 152.277 208.884 151.599 209.7C149.216 212.578 147.179 215.727 145.531 219.082C150.777 220.06 155.466 223.771 155.466 233.916Z" fill="#FFCE43"/>
<path id="Vector_54" d="M228.414 240.113L209.75 240.137C208.222 240.15 206.738 240.641 205.504 241.541C204.27 242.441 203.348 243.705 202.869 245.155C202.532 246.137 202.096 247.082 201.566 247.976C200.775 249.276 200.41 250.791 200.52 252.309C200.631 253.828 201.213 255.274 202.184 256.446L214.21 270.735C214.892 271.547 215.744 272.199 216.706 272.645C217.668 273.091 218.717 273.32 219.777 273.317C220.837 273.314 221.884 273.078 222.843 272.626C223.803 272.173 224.651 271.516 225.328 270.7C230.59 264.351 234.115 256.745 235.558 248.626C235.744 247.582 235.698 246.511 235.425 245.487C235.151 244.463 234.656 243.512 233.975 242.7C233.294 241.888 232.443 241.235 231.482 240.788C230.521 240.341 229.473 240.111 228.414 240.113Z" fill="#FFCE43"/>
<path id="Vector_55" d="M143.607 256.914C146.479 264.644 151.307 271.497 157.62 276.802C158.431 277.484 159.382 277.98 160.406 278.254C161.429 278.529 162.501 278.575 163.544 278.391C164.588 278.206 165.578 277.794 166.445 277.185C167.312 276.576 168.035 275.784 168.563 274.865L173.856 265.659C171.46 263.739 168.606 262.475 165.574 261.992C159.37 261.106 156.664 258.463 155.799 246.075L149.129 247.265C148.085 247.451 147.095 247.864 146.228 248.474C145.361 249.085 144.639 249.878 144.112 250.798C143.586 251.719 143.267 252.743 143.18 253.8C143.093 254.857 143.238 255.92 143.607 256.914Z" fill="#FFB345"/>
<path id="Vector_56" d="M180.735 272.1C179.763 271.248 178.837 270.345 177.96 269.396L174.921 277.818C174.561 278.816 174.424 279.88 174.52 280.935C174.616 281.991 174.943 283.013 175.477 283.929C176.011 284.845 176.74 285.632 177.612 286.235C178.483 286.839 179.477 287.243 180.522 287.421C186.09 288.361 191.78 288.304 197.327 287.252C196.174 284.026 183.543 274.346 180.735 272.1Z" fill="#FFB345"/>
<path id="Vector_57" d="M148.514 240.287L155.539 240.278C155.49 238.336 155.466 236.226 155.466 233.916C155.466 223.771 150.777 220.06 145.532 219.082C143.557 223.096 142.156 227.368 141.371 231.773C141.185 232.816 141.23 233.888 141.503 234.912C141.777 235.936 142.272 236.887 142.953 237.699C143.634 238.511 144.485 239.164 145.446 239.611C146.407 240.058 147.455 240.289 148.514 240.287Z" fill="#FFB345"/>
</g>
</g>
</svg>
