<svg width="257" height="62" viewBox="0 0 257 62" fill="none" xmlns="http://www.w3.org/2000/svg">
<path d="M18.9404 29.5701H8.14918C7.01475 29.5701 6.44504 28.1591 7.24826 27.3343L10.799 23.6843C11.4514 23.0059 12.234 22.4663 13.0999 22.0977C13.9659 21.7291 14.8974 21.5391 15.8385 21.5391C16.7797 21.5391 17.7111 21.7291 18.5771 22.0977C19.443 22.4663 20.2257 23.0059 20.8781 23.6843L22.0108 24.8485L22.0258 24.8154L22.1086 24.8535C23.7315 20.5923 23.8458 18.6513 23.8392 13.7973L23.8359 13.1878C23.8177 9.25456 23.7945 4.49986 28.1749 3.87053C33.9233 3.04248 38.1215 13.1878 38.8088 22.1971C40.0843 21.7247 41.4699 21.6348 42.7957 21.9384C44.1216 22.242 45.33 22.9259 46.2729 23.9062L49.8253 27.5563C50.6301 28.3843 50.0604 29.792 48.926 29.792H43.0733C43.2306 30.3716 43.3151 30.9861 43.3151 31.6187V44.1257C43.3151 46.1445 41.1207 46.9791 39.7793 45.3959C39.2742 44.8014 37.4226 42.6368 35.018 39.8314C28.5707 49.0692 12.3507 54.1037 7.77159 46.4691C7.73519 46.4711 7.69874 46.4722 7.66229 46.4724H6.02108C5.45106 46.4567 4.90965 46.2192 4.51202 45.8105C4.11439 45.4018 3.89191 44.854 3.89191 44.2838C3.89191 43.7136 4.11439 43.1658 4.51202 42.7571C4.90965 42.3484 5.45106 42.1109 6.02108 42.0953H6.56263C6.59409 38.369 9.27865 35.1446 12.8492 33.7418C15.1697 32.8304 17.2526 31.4033 18.9404 29.5684V29.5701ZM35.5959 24.8336C35.5959 24.5521 35.5943 24.2672 35.586 23.9757C35.4919 21.0293 35.0222 18.107 34.1882 15.2795C33.3486 12.4475 32.2307 10.1356 31.0433 8.6716C29.8409 7.18938 29.041 7.09167 28.6469 7.14798C28.155 7.21919 28.0027 7.36327 27.9364 7.43283C27.8255 7.54876 27.6383 7.82036 27.4744 8.4265C27.1382 9.67852 27.1431 11.2667 27.1498 13.2541V13.7906C27.1547 16.2963 27.1299 18.2721 26.8301 20.2379C26.5999 21.7483 26.2207 23.1858 25.6427 24.8319H35.5959V24.8336ZM27.9381 31.5806C24.3244 38.5727 16.9382 41.981 10.0107 42.3371C9.84714 42.3446 9.68673 42.3843 9.53863 42.454C9.39054 42.5238 9.25768 42.622 9.1477 42.7433C9.03773 42.8645 8.95279 43.0063 8.89779 43.1604C8.84279 43.3146 8.8188 43.4781 8.8272 43.6416C8.8356 43.8051 8.87623 43.9653 8.94675 44.113C9.01727 44.2607 9.11629 44.393 9.23812 44.5023C9.35995 44.6116 9.50219 44.6958 9.65665 44.7499C9.81111 44.8041 9.97476 44.8272 10.1382 44.8179C17.4118 44.4453 25.4224 40.9559 29.6704 33.5961L27.9381 31.5806Z" fill="#FBFF2D"/>
<path d="M97.8989 27.4922C98.8185 27.6637 99.5745 28.1235 100.167 28.8717C100.759 29.6199 101.055 30.4771 101.055 31.4435C101.055 32.3164 100.837 33.088 100.401 33.7582C99.9797 34.4128 99.364 34.9272 98.5535 35.3013C97.743 35.6754 96.7844 35.8624 95.6777 35.8624H88.6402V19.5429H95.3738C96.4805 19.5429 97.4313 19.7221 98.2262 20.0806C99.0367 20.4391 99.6446 20.9379 100.05 21.577C100.471 22.2161 100.681 22.9409 100.681 23.7514C100.681 24.7022 100.424 25.4971 99.9096 26.1362C99.4108 26.7752 98.7406 27.2273 97.8989 27.4922ZM91.9135 26.2765H94.9062C95.6855 26.2765 96.2856 26.105 96.7065 25.7621C97.1273 25.4036 97.3377 24.897 97.3377 24.2424C97.3377 23.5877 97.1273 23.0811 96.7065 22.7226C96.2856 22.3641 95.6855 22.1849 94.9062 22.1849H91.9135V26.2765ZM95.2101 33.1971C96.0051 33.1971 96.6207 33.01 97.0572 32.6359C97.5092 32.2618 97.7352 31.7319 97.7352 31.0461C97.7352 30.3446 97.5014 29.7991 97.0338 29.4094C96.5662 29.0042 95.9349 28.8015 95.14 28.8015H91.9135V33.1971H95.2101ZM113.671 32.7528H107.171L106.096 35.8624H102.659L108.527 19.5195H112.338L118.207 35.8624H114.746L113.671 32.7528ZM112.782 30.1342L110.421 23.3071L108.059 30.1342H112.782ZM134.358 35.8624H131.085L123.673 24.6632V35.8624H120.4V19.5195H123.673L131.085 30.7421V19.5195H134.358V35.8624ZM147.6 32.7528H141.1L140.025 35.8624H136.588L142.456 19.5195H146.267L152.136 35.8624H148.675L147.6 32.7528ZM146.711 30.1342L144.35 23.3071L141.988 30.1342H146.711ZM168.287 35.8624H165.014L157.602 24.6632V35.8624H154.329V19.5195H157.602L165.014 30.7421V19.5195H168.287V35.8624ZM181.529 32.7528H175.029L173.954 35.8624H170.517L176.385 19.5195H180.196L186.065 35.8624H182.604L181.529 32.7528ZM180.64 30.1342L178.279 23.3071L175.917 30.1342H180.64ZM199.464 36.0261C198.326 36.0261 197.297 35.8313 196.378 35.4416C195.474 35.0519 194.757 34.4908 194.227 33.7582C193.697 33.0256 193.424 32.1605 193.408 31.163H196.915C196.962 31.8332 197.196 32.3632 197.617 32.7528C198.053 33.1425 198.646 33.3373 199.394 33.3373C200.158 33.3373 200.758 33.1581 201.194 32.7996C201.631 32.4255 201.849 31.9423 201.849 31.35C201.849 30.8668 201.701 30.4693 201.405 30.1576C201.108 29.8459 200.734 29.6043 200.282 29.4328C199.846 29.2458 199.238 29.0431 198.459 28.8249C197.399 28.5132 196.534 28.2092 195.863 27.9131C195.209 27.6013 194.64 27.1415 194.157 26.5336C193.689 25.9102 193.455 25.0841 193.455 24.0553C193.455 23.0889 193.697 22.2472 194.18 21.5302C194.663 20.8132 195.341 20.2677 196.214 19.8936C197.087 19.5039 198.084 19.3091 199.207 19.3091C200.89 19.3091 202.254 19.7221 203.298 20.5483C204.358 21.3588 204.943 22.4966 205.052 23.9618H201.451C201.42 23.4007 201.178 22.9409 200.726 22.5824C200.29 22.2083 199.706 22.0212 198.973 22.0212C198.334 22.0212 197.82 22.1849 197.43 22.5122C197.056 22.8395 196.869 23.3149 196.869 23.9384C196.869 24.3748 197.009 24.7411 197.29 25.0373C197.586 25.3179 197.944 25.5517 198.365 25.7387C198.801 25.9102 199.409 26.1128 200.189 26.3466C201.249 26.6583 202.114 26.9701 202.784 27.2818C203.454 27.5936 204.031 28.0612 204.514 28.6846C204.997 29.3081 205.239 30.1264 205.239 31.1396C205.239 32.0125 205.013 32.823 204.561 33.5711C204.109 34.3193 203.446 34.9194 202.574 35.3714C201.701 35.8079 200.664 36.0261 199.464 36.0261ZM221.614 19.5429V35.8624H218.341V28.9184H211.35V35.8624H208.077V19.5429H211.35V26.2531H218.341V19.5429H221.614ZM232.411 36.0261C230.883 36.0261 229.481 35.6676 228.202 34.9506C226.924 34.2336 225.911 33.2438 225.163 31.9813C224.415 30.7031 224.041 29.2614 224.041 27.6559C224.041 26.066 224.415 24.6398 225.163 23.3773C225.911 22.0992 226.924 21.1016 228.202 20.3846C229.481 19.6676 230.883 19.3091 232.411 19.3091C233.954 19.3091 235.357 19.6676 236.619 20.3846C237.898 21.1016 238.903 22.0992 239.635 23.3773C240.384 24.6398 240.758 26.066 240.758 27.6559C240.758 29.2614 240.384 30.7031 239.635 31.9813C238.903 33.2438 237.898 34.2336 236.619 34.9506C235.341 35.6676 233.938 36.0261 232.411 36.0261ZM232.411 33.1035C233.393 33.1035 234.258 32.8853 235.006 32.4489C235.754 31.9969 236.339 31.3578 236.76 30.5317C237.181 29.7056 237.391 28.747 237.391 27.6559C237.391 26.5648 237.181 25.614 236.76 24.8035C236.339 23.9774 235.754 23.3461 235.006 22.9097C234.258 22.4732 233.393 22.255 232.411 22.255C231.429 22.255 230.556 22.4732 229.792 22.9097C229.044 23.3461 228.46 23.9774 228.039 24.8035C227.618 25.614 227.408 26.5648 227.408 27.6559C227.408 28.747 227.618 29.7056 228.039 30.5317C228.46 31.3578 229.044 31.9969 229.792 32.4489C230.556 32.8853 231.429 33.1035 232.411 33.1035ZM255.094 24.5931C255.094 25.4659 254.883 26.2843 254.462 27.048C254.057 27.8118 253.41 28.4275 252.522 28.8951C251.649 29.3627 250.542 29.5965 249.202 29.5965H246.466V35.8624H243.193V19.5429H249.202C250.464 19.5429 251.54 19.7611 252.428 20.1975C253.317 20.634 253.979 21.2341 254.416 21.9978C254.868 22.7616 255.094 23.6267 255.094 24.5931ZM249.061 26.9545C249.966 26.9545 250.636 26.7519 251.072 26.3466C251.509 25.9258 251.727 25.3412 251.727 24.5931C251.727 23.0032 250.838 22.2083 249.061 22.2083H246.466V26.9545H249.061Z" fill="white"/>
</svg>
